<?xml version="1.0" encoding="utf-8"?>
<!-- Generator: Adobe Illustrator 16.0.0, SVG Export Plug-In . SVG Version: 6.00 Build 0)  -->
<!DOCTYPE svg PUBLIC "-//W3C//DTD SVG 1.1//EN" "http://www.w3.org/Graphics/SVG/1.1/DTD/svg11.dtd">
<svg version="1.1" id="Layer_1" xmlns="http://www.w3.org/2000/svg" xmlns:xlink="http://www.w3.org/1999/xlink" x="0px" y="0px"
	 width="307px" height="160px" viewBox="0 0 307 160" enable-background="new 0 0 307 160" xml:space="preserve">
<g>
	<path d="M22.335,137.102c-0.198,0.074-0.47,0.31-0.817,0.706c-0.322,0.371-0.632,0.569-0.929,0.594
		c-0.892,0.793-2.39,1.598-4.495,2.415c-0.148,0.321-0.421,0.508-0.817,0.557c-0.396,0.025-0.656,0.1-0.78,0.224l-2.749,0.668
		c-1.164,0.272-2.154,0.409-2.972,0.409c-0.619,0-1.164-0.074-1.635-0.224c-0.148-0.099-0.186-0.31-0.111-0.631
		c0.644,0.099,1.536-0.025,2.675-0.372c0.049-0.173,0.024-0.408-0.074-0.705c-0.124-0.396-0.186-0.632-0.186-0.706
		c0.347-2.923,0.904-6.018,1.672-9.287c0.223-0.421,0.421-1.016,0.594-1.783c0.198-0.916,0.359-1.522,0.483-1.82
		c-0.025-0.124,0.124-0.693,0.446-1.709c0.173-0.569-0.012-0.866-0.557-0.891c-0.743-0.817-1.115-1.351-1.115-1.598
		c0-0.1,0.013-0.198,0.038-0.297c0.173-0.198,0.433-0.298,0.78-0.298c0.223,0,0.483,0.037,0.78,0.111
		c0.049,0.025,0.111,0.037,0.186,0.037h0.037l0.223-0.223c0.223-0.223,0.359-0.347,0.409-0.371c0.173-0.124,0.371-0.198,0.594-0.223
		c0.495,0.074,0.904,0.52,1.226,1.337c-0.025,0.074-0.038,0.148-0.038,0.223c0,0.1,0.05,0.161,0.149,0.186h0.334
		c0.05,0,0.161-0.024,0.334-0.074c0.297,0.224,0.867,0.372,1.709,0.446c3.12,0.619,5.498,1.857,7.132,3.715
		c0.842,0.94,1.263,2.03,1.263,3.269c0,0.941-0.272,1.833-0.817,2.675C24.985,134.104,23.995,135.318,22.335,137.102 M24.378,129.82
		c-0.025-0.173-0.099-0.434-0.223-0.78c-0.619-0.94-2.105-1.906-4.458-2.897l-2.526-0.52c-0.991-0.198-1.857-0.272-2.601-0.224
		c-0.173,0.941-0.508,2.254-1.003,3.938c-0.545,1.808-0.904,3.12-1.077,3.938c-0.198,0.396-0.297,0.718-0.297,0.966
		c0,0.099,0.012,0.186,0.037,0.26c-0.148,0.569-0.31,1.548-0.483,2.935c-0.173,1.238-0.396,2.191-0.668,2.86
		c0.148,0.347,0.21,0.606,0.186,0.78h0.074c0.892,0,2.043-0.322,3.455-0.966c0,0,1.115-0.521,3.344-1.561
		c0.272-0.272,0.681-0.582,1.226-0.929c0.644-0.396,1.065-0.681,1.263-0.854c2.402-1.956,3.739-3.999,4.012-6.129
		C24.515,130.464,24.428,130.191,24.378,129.82"/>
	<path d="M34.109,126.068c-0.025,0.074-0.124,0.198-0.297,0.372l-0.037,0.074c-0.049,0.148-0.136,0.235-0.26,0.26
		c-0.421,0.297-0.941,0.842-1.56,1.635c-0.049,0-0.186,0.024-0.409,0.074c-0.124,0.049-0.248,0.037-0.371-0.037
		c-0.421-0.248-0.471-0.582-0.149-1.003c1.04-0.545,2.006-1.238,2.897-2.081c0.149,0.149,0.223,0.298,0.223,0.446
		C34.146,125.907,34.134,125.994,34.109,126.068 M29.688,141.856c-1.337-0.372-2.142-1.696-2.415-3.975
		c-0.074-0.025-0.421-0.037-1.04-0.037c-0.421,0-0.755-0.198-1.003-0.595c0-0.595,0.148-0.941,0.446-1.04
		c0.322,0,0.644,0.013,0.966,0.037c0.421-0.024,0.718-0.124,0.892-0.297c0.372-2.576,1.337-4.582,2.897-6.019
		c0.768-0.718,1.536-1.077,2.303-1.077c0.569,0,0.941,0.148,1.114,0.446c0.173,0.297,0.297,0.47,0.372,0.52
		c0.049,0.272,0.074,0.545,0.074,0.817c0,1.337-0.941,2.935-2.823,4.792c-0.668,0.644-1.523,1.238-2.563,1.783
		c-0.074,0.198-0.111,0.421-0.111,0.669c0,0.371,0.161,1.003,0.483,1.895c0.52,0.569,1.064,0.854,1.634,0.854
		c0.148,0,0.285-0.025,0.409-0.075c0.768-0.148,2.068-0.879,3.9-2.191h0.706v0.669c-2.081,1.981-3.802,2.972-5.164,2.972
		C30.419,142.005,30.06,141.955,29.688,141.856 M32.958,130.191c-0.817,0.248-1.795,1.115-2.935,2.601
		c-0.248,0.521-0.545,1.338-0.892,2.452c1.238-0.743,2.377-1.833,3.417-3.27c0.421-0.594,0.595-1.151,0.521-1.671L32.958,130.191"/>
	<path d="M47.031,130.972l0.706,0.148c-0.149,0.372-0.347,0.632-0.595,0.78c-0.47,0.347-0.953,0.693-1.449,1.04
		c-0.248,0.174-0.842,0.272-1.783,0.298l-0.334-0.111c-0.148-0.05-0.26-0.074-0.334-0.074c-0.049,0.371-0.136,0.966-0.26,1.782
		c-1.337,3.69-2.959,6.353-4.867,7.987c-0.446,0.371-1.04,0.471-1.783,0.297c-0.941-0.594-1.412-1.646-1.412-3.157
		c0-0.372,0.024-0.805,0.074-1.301c0.347-1.733,0.656-2.996,0.929-3.789c0.024-0.544,0.173-1.163,0.446-1.857
		c0.396-1.015,0.619-1.609,0.668-1.782c0.223-0.124,0.434-0.187,0.631-0.187c0.297,0,0.558,0.137,0.78,0.409
		c-0.025,0.594-0.186,1.238-0.483,1.932c-0.446,1.016-0.693,1.609-0.743,1.783c-0.024,0.297-0.198,1.064-0.52,2.303
		c-0.223,0.892-0.334,1.647-0.334,2.267c0,1.015,0.186,1.696,0.557,2.043c0.297-0.1,0.606-0.335,0.929-0.706
		c0.47-0.545,0.743-0.854,0.817-0.929c1.164-1.759,1.932-3.021,2.303-3.789c0.693-1.486,1.041-2.897,1.041-4.234
		c0-0.372-0.025-0.743-0.075-1.115c0.198-0.148,0.384-0.223,0.558-0.223c0.173,0,0.396,0.137,0.668,0.409
		c0.297,0.272,0.495,0.433,0.594,0.482c0.347,0.1,0.681,0.148,1.003,0.148c0.421,0,0.842-0.124,1.263-0.371
		C46.598,131.158,46.932,130.997,47.031,130.972"/>
	<path d="M51.442,140.11l-0.111,0.111c-0.124,0.074-0.173,0.198-0.148,0.372c-1.981,1.485-3.566,2.278-4.755,2.377
		c-0.669,0.024-1.325-0.099-1.969-0.371c-0.545-0.298-0.917-0.693-1.115-1.189c-0.173-0.396-0.297-1.052-0.371-1.969
		c0.768-3.913,2.625-6.971,5.572-9.175c0.099-0.025,0.384-0.075,0.854-0.149c0.396-0.074,0.718,0,0.966,0.224
		c0.272,0.223,0.409,0.532,0.409,0.929c-0.049,0.321-0.087,0.631-0.111,0.929c-0.421,1.436-1.857,3.096-4.309,4.978
		c-0.149,0.124-0.557,0.248-1.226,0.371c-0.396,0.074-0.582,0.298-0.557,0.669c-0.322,0.545-0.458,1.053-0.409,1.523
		c0,0.197,0.099,0.569,0.297,1.114c0.421,0.594,1.102,0.892,2.043,0.892l0.148-0.111c0.396,0,0.941-0.137,1.635-0.409
		c0.693-0.421,1.795-1.016,3.306-1.783c0.024,0.1,0.037,0.186,0.037,0.261C51.628,139.851,51.566,139.986,51.442,140.11
		 M49.288,132.012c-0.074-0.074-0.161-0.148-0.26-0.223c-1.312,0.817-2.452,2.18-3.417,4.086c0.124,0,0.26-0.049,0.409-0.148
		c0.619-0.569,1.238-1.139,1.857-1.708C48.594,133.25,49.064,132.582,49.288,132.012"/>
	<path d="M57.895,121.76c-0.272,0.297-0.372,0.582-0.297,0.854c-0.347,0.422-0.631,1.09-0.854,2.007
		c-0.248,1.015-0.483,1.708-0.706,2.08c-0.173,0.545-0.446,1.437-0.817,2.675c0.074,0.173,0.037,0.334-0.111,0.482
		c-0.025,0.1-0.285,1.028-0.78,2.786c-0.322,1.065-0.52,1.994-0.594,2.786c-0.149,0.198-0.248,0.545-0.297,1.04
		c-0.025,0.471-0.111,0.793-0.26,0.966c-0.248,1.535-0.322,2.514-0.223,2.935c-0.074,0.272-0.012,0.669,0.186,1.188
		c0.248-0.024,0.521-0.16,0.817-0.408c0.396-0.322,0.644-0.508,0.743-0.557c0.272-0.149,0.644-0.198,1.114-0.149
		c-0.446,0.817-1.003,1.523-1.671,2.118c-0.149,0-0.347,0.049-0.595,0.148c-0.223,0.099-0.384,0.148-0.483,0.148
		c-0.148,0-0.322-0.062-0.52-0.186c-0.495-0.446-0.768-0.706-0.817-0.78c-0.198-0.347-0.297-0.892-0.297-1.635
		c0-0.347,0.012-0.755,0.037-1.226c0.049-0.1,0.136-0.508,0.26-1.226c0.297-1.734,0.582-3.195,0.854-4.384
		c0.52-2.427,1.164-4.978,1.932-7.652c0.198-0.719,0.496-1.511,0.892-2.378c0.471-1.089,0.718-1.659,0.743-1.708
		c0.099-0.298,0.334-0.694,0.706-1.189c0.223-0.272,0.471-0.408,0.743-0.408c0.248,0,0.495,0.148,0.743,0.445
		C58.415,120.93,58.266,121.338,57.895,121.76"/>
	<path d="M63.623,138.327c-0.198,0.1-0.359,0.297-0.483,0.595c-0.173,0.421-0.285,0.656-0.334,0.705
		c-0.297,0.396-0.842,0.954-1.634,1.672c-0.743,1.065-1.833,1.672-3.269,1.82c-0.396,0.025-0.792,0-1.189-0.074
		c-0.966-0.471-1.585-1.387-1.857-2.749c0.074-0.792,0.285-1.646,0.632-2.563c0.223-0.544,0.545-1.35,0.966-2.414
		c0.198-0.223,0.458-0.619,0.78-1.188c0.322-0.496,0.656-0.843,1.003-1.04c0.322-0.545,0.83-0.892,1.523-1.041
		c0.248,0.05,0.656-0.197,1.226-0.742c-0.024-0.1,0.037-0.248,0.186-0.446c0.272-0.024,0.52-0.037,0.743-0.037
		c0.372,0,0.669,0.037,0.892,0.111c1.016,0.719,1.523,1.92,1.523,3.604c0,0.421-0.037,0.867-0.111,1.337
		C64.167,136.321,63.969,137.139,63.623,138.327 M62.991,133.015c-0.075-0.544-0.322-0.916-0.743-1.114l-1.635,0.595l0.372,0.445
		c0.025,0.272,0.05,0.669,0.074,1.189c0,0.445-0.136,0.805-0.408,1.077c-0.124,0.074-0.248,0.124-0.372,0.148
		c-0.347,0.024-0.57-0.384-0.669-1.226c-0.223,0.099-0.507,0.358-0.854,0.78c-0.421,0.495-0.718,0.805-0.892,0.928
		c-0.693,1.486-1.065,2.354-1.115,2.601c-0.223,0.645-0.334,1.264-0.334,1.857c0,0.298,0.024,0.595,0.074,0.892
		c0.173,0.248,0.545,0.396,1.114,0.446c2.823-0.817,4.693-3.071,5.609-6.762C63.14,134.179,63.065,133.56,62.991,133.015"/>
	<path d="M66.482,141.039c2.848-1.064,5.102-2.823,6.761-5.275c0.025-0.123,0.136-0.384,0.334-0.779
		c0.198-0.396,0.297-0.719,0.297-0.966c0-0.843-0.557-1.425-1.671-1.746c-0.718-0.124-1.424-0.235-2.118-0.335
		c-0.124,0.074-0.73,0.298-1.82,0.669c-0.743,0.272-1.263,0.606-1.56,1.003c-0.049,0.124-0.285,0.396-0.706,0.817
		c-0.025,0.05-0.186,0.297-0.483,0.743c-0.198-1.238-0.285-1.969-0.26-2.192c0.917-1.361,2.415-2.278,4.495-2.748
		c1.758-0.075,3.343,0.371,4.755,1.337c0.743,1.04,1.114,1.919,1.114,2.638c0,0.421-0.111,0.829-0.334,1.226
		c-0.198,0-0.31,0.087-0.334,0.26c-0.025,0.174-0.062,0.347-0.112,0.521c-0.049,0.148-0.173,0.247-0.371,0.297
		c-0.867,1.14-1.944,2.241-3.232,3.307c-1.461,1.164-2.786,1.919-3.975,2.266c-0.495,0.148-0.817,0.272-0.966,0.371
		c-0.297,0.198-0.421,0.521-0.371,0.966c-0.223,1.065-0.619,2.663-1.189,4.793c-0.148,0.148-0.26,0.544-0.334,1.188
		c-0.322,1.213-0.916,3.12-1.783,5.721c-0.05-0.025-0.297-0.037-0.743-0.037c-0.248,0.024-0.421-0.111-0.52-0.409
		c-0.025-0.445,0.111-1.064,0.409-1.857c0.297-0.768,0.446-1.35,0.446-1.745c0-0.149-0.013-0.298-0.037-0.446
		c0.223-0.322,0.421-0.854,0.594-1.598c0.198-0.842,0.372-1.398,0.52-1.671c0.198-0.669,0.495-1.672,0.892-3.01
		c0.297-1.089,0.409-2.142,0.334-3.157c0.248-0.099,0.421-0.322,0.52-0.669c0.049-0.272,0.111-0.557,0.186-0.854
		c-0.025-0.421,0.049-0.903,0.223-1.448c0.198-0.669,0.31-1.114,0.334-1.337c0-0.05,0.037-0.483,0.111-1.301
		c0.05-0.545,0.223-0.903,0.521-1.077c0.248-0.148,0.631-0.074,1.151,0.223c0.099,0.05,0.248,0.1,0.446,0.148
		c-0.074,0.198-0.21,0.743-0.409,1.635c-0.124,0.743-0.297,1.238-0.52,1.486c0,0.52-0.161,1.25-0.483,2.191
		C66.619,140.333,66.582,140.618,66.482,141.039"/>
	<path d="M77.293,141.039c2.848-1.064,5.102-2.823,6.761-5.275c0.025-0.123,0.136-0.384,0.334-0.779
		c0.198-0.396,0.297-0.719,0.297-0.966c0-0.843-0.557-1.425-1.671-1.746c-0.718-0.124-1.424-0.235-2.118-0.335
		c-0.124,0.074-0.73,0.298-1.82,0.669c-0.743,0.272-1.263,0.606-1.56,1.003c-0.049,0.124-0.285,0.396-0.706,0.817
		c-0.025,0.05-0.186,0.297-0.483,0.743c-0.198-1.238-0.285-1.969-0.26-2.192c0.917-1.361,2.415-2.278,4.495-2.748
		c1.758-0.075,3.343,0.371,4.755,1.337c0.743,1.04,1.114,1.919,1.114,2.638c0,0.421-0.111,0.829-0.334,1.226
		c-0.198,0-0.31,0.087-0.334,0.26c-0.025,0.174-0.062,0.347-0.112,0.521c-0.049,0.148-0.173,0.247-0.371,0.297
		c-0.867,1.14-1.944,2.241-3.232,3.307c-1.461,1.164-2.786,1.919-3.975,2.266c-0.495,0.148-0.817,0.272-0.966,0.371
		c-0.297,0.198-0.421,0.521-0.371,0.966c-0.223,1.065-0.619,2.663-1.189,4.793c-0.148,0.148-0.26,0.544-0.334,1.188
		c-0.322,1.213-0.916,3.12-1.783,5.721c-0.05-0.025-0.297-0.037-0.743-0.037c-0.248,0.024-0.421-0.111-0.52-0.409
		c-0.025-0.445,0.111-1.064,0.409-1.857c0.297-0.768,0.446-1.35,0.446-1.745c0-0.149-0.013-0.298-0.037-0.446
		c0.223-0.322,0.421-0.854,0.594-1.598c0.198-0.842,0.372-1.398,0.52-1.671c0.198-0.669,0.495-1.672,0.892-3.01
		c0.297-1.089,0.409-2.142,0.334-3.157c0.248-0.099,0.421-0.322,0.52-0.669c0.049-0.272,0.111-0.557,0.186-0.854
		c-0.025-0.421,0.049-0.903,0.223-1.448c0.198-0.669,0.31-1.114,0.334-1.337c0-0.05,0.037-0.483,0.111-1.301
		c0.05-0.545,0.223-0.903,0.521-1.077c0.248-0.148,0.631-0.074,1.151,0.223c0.099,0.05,0.248,0.1,0.446,0.148
		c-0.074,0.198-0.21,0.743-0.409,1.635c-0.124,0.743-0.297,1.238-0.52,1.486c0,0.52-0.161,1.25-0.483,2.191
		C77.429,140.333,77.392,140.618,77.293,141.039"/>
	<path d="M93.732,138.327c-0.198,0.1-0.359,0.297-0.483,0.595c-0.173,0.421-0.285,0.656-0.334,0.705
		c-0.297,0.396-0.842,0.954-1.634,1.672c-0.743,1.065-1.833,1.672-3.269,1.82c-0.396,0.025-0.792,0-1.189-0.074
		c-0.966-0.471-1.585-1.387-1.857-2.749c0.075-0.792,0.285-1.646,0.632-2.563c0.223-0.544,0.545-1.35,0.966-2.414
		c0.198-0.223,0.458-0.619,0.78-1.188c0.322-0.496,0.657-0.843,1.003-1.04c0.322-0.545,0.83-0.892,1.523-1.041
		c0.248,0.05,0.656-0.197,1.226-0.742c-0.024-0.1,0.037-0.248,0.186-0.446c0.272-0.024,0.52-0.037,0.743-0.037
		c0.372,0,0.669,0.037,0.892,0.111c1.016,0.719,1.523,1.92,1.523,3.604c0,0.421-0.037,0.867-0.111,1.337
		C94.277,136.321,94.079,137.139,93.732,138.327 M93.101,133.015c-0.075-0.544-0.322-0.916-0.743-1.114l-1.634,0.595l0.371,0.445
		c0.025,0.272,0.05,0.669,0.075,1.189c0,0.445-0.136,0.805-0.409,1.077c-0.124,0.074-0.248,0.124-0.372,0.148
		c-0.347,0.024-0.57-0.384-0.668-1.226c-0.223,0.099-0.508,0.358-0.854,0.78c-0.421,0.495-0.718,0.805-0.892,0.928
		c-0.693,1.486-1.065,2.354-1.115,2.601c-0.223,0.645-0.334,1.264-0.334,1.857c0,0.298,0.024,0.595,0.074,0.892
		c0.173,0.248,0.545,0.396,1.114,0.446c2.823-0.817,4.693-3.071,5.609-6.762C93.25,134.179,93.175,133.56,93.101,133.015"/>
	<path d="M103.422,134.91c-0.173,0.816-0.334,1.622-0.483,2.414c-0.198,1.016-0.297,1.82-0.297,2.415
		c0,1.089,0.285,2.043,0.854,2.86c-0.248,0.074-0.471,0.111-0.669,0.111c-0.347,0-0.656-0.111-0.929-0.335
		c-0.47-0.817-0.706-1.795-0.706-2.935c0-0.718,0.111-1.622,0.334-2.712l0.52-2.6l-0.037-0.074
		c-0.941,0.718-2.006,1.969-3.195,3.752c-1.263,1.882-2.266,3.17-3.009,3.863c-0.347,0.148-0.656,0.223-0.929,0.223
		c-0.148,0-0.297-0.025-0.445-0.074c-0.421-0.322-0.533-0.867-0.334-1.635c0.272-1.064,0.656-2.477,1.151-4.234
		c0.446-1.635,0.743-3.071,0.892-4.31c0.173-0.223,0.384-0.334,0.632-0.334c0.248,0,0.47,0.136,0.668,0.408
		c0.223,0.272,0.31,0.532,0.26,0.78l-1.597,6.575c0.099-0.272,0.347-0.619,0.743-1.04c1.263-1.759,2.08-2.86,2.452-3.307
		c0.991-1.164,2.018-2.08,3.083-2.749c0.817,0,1.226,0.434,1.226,1.301c0,0.173-0.037,0.445-0.111,0.817
		C103.447,134.464,103.422,134.736,103.422,134.91"/>
	<path d="M106.244,135.652c0.124,0.025,0.173,0.037,0.148,0.037c-0.024,0.025-0.049,0.037-0.074,0.037l0.409,0.111
		c-0.025,0.124,0.037,0.211,0.186,0.261c0.024,0,0.074,0.024,0.148,0.074c0.049-0.025,0.111-0.037,0.186-0.037h0.26
		c0.124,0.223,0.446,0.421,0.966,0.594c0.545,0.174,0.892,0.347,1.04,0.521c1.09,0.545,1.721,1.201,1.895,1.969
		c0,0.521-0.248,1.077-0.743,1.672c-0.099,0-0.186,0.062-0.26,0.186s-0.136,0.211-0.186,0.26c-1.461,0.991-2.786,1.449-3.975,1.375
		c-0.743-0.05-1.399-0.285-1.969-0.706c-0.198-0.793-0.297-1.114-0.297-0.966c0-0.248,0.161-0.483,0.483-0.706
		c0.075,0.148,0.297,0.495,0.669,1.04c0.173,0.272,0.421,0.372,0.743,0.298c1.214-0.298,1.981-0.521,2.303-0.669
		c0.892-0.371,1.486-0.879,1.783-1.523c-0.074-0.594-0.892-1.213-2.452-1.857c-0.496-0.197-1.115-0.482-1.857-0.854
		c-0.619-0.421-0.917-0.99-0.892-1.708c0.248-0.347,0.656-0.743,1.226-1.189c0.743-0.545,1.201-0.903,1.374-1.077
		c0.347-0.247,0.892-0.532,1.635-0.854c0.347-0.197,1.201-0.557,2.563-1.077c0.446,0.1,0.681,0.148,0.706,0.148
		c0.272,0.1,0.421,0.272,0.446,0.521c0,0.198-0.161,0.384-0.483,0.557c-0.173,0.05-0.434,0.161-0.78,0.335
		c-0.322,0.148-0.569,0.247-0.743,0.297c-0.075,0-0.632,0.248-1.672,0.743c-1.213,0.595-2.093,1.201-2.638,1.82
		c0,0.05-0.062,0.173-0.186,0.371H106.244"/>
	<path d="M126.487,139.479c-0.619,0.817-1.226,1.635-1.82,2.452c-0.792,0.892-1.622,1.337-2.489,1.337
		c-0.372,0-0.755-0.074-1.152-0.223c-0.594-0.52-0.891-1.214-0.891-2.08c0-0.569,0.086-1.201,0.26-1.895
		c0.099-0.743,0.458-2.167,1.077-4.272c0.124-0.445,0.446-1.089,0.966-1.932l0.929-1.522c0.471-0.743,1.041-1.114,1.709-1.114
		c0.396,0,0.929,0.421,1.597,1.263c0.025,0.198,0.112,0.396,0.26,0.594c0.198-1.188,0.631-2.922,1.3-5.2
		c0-0.173,0.223-0.867,0.668-2.08c0.148-0.272,0.359-0.409,0.631-0.409c0.446,0,0.755,0.224,0.929,0.669
		c0.074,2.154-0.26,4.644-1.003,7.467c-0.198,0.718-0.594,1.659-1.188,2.823c-0.347,0.669-0.52,1.437-0.52,2.303
		c0,0.892,0.173,1.697,0.52,2.415c0.248,0.297,0.52,0.445,0.817,0.445c0.149,0,0.297-0.049,0.446-0.148
		c0.347-0.124,0.706-0.384,1.078-0.78c0.272-0.321,0.557-0.656,0.854-1.003c0.173-0.198,0.521-0.433,1.041-0.705
		c0.049,0.223,0.074,0.421,0.074,0.594c-0.05,0.174-0.223,0.619-0.52,1.338c-0.743,0.768-1.189,1.213-1.337,1.337
		c-0.57,0.471-1.127,0.706-1.672,0.706c-0.248,0-0.507-0.05-0.78-0.148C127.502,141.262,126.908,140.519,126.487,139.479
		 M126.45,134.984c-0.05-0.198,0.012-0.669,0.186-1.412c-0.372-0.124-0.693-0.396-0.966-0.817l-0.186-0.297
		c-0.124-0.223-0.272-0.384-0.446-0.483c-0.743,0.817-1.461,1.969-2.155,3.455l-0.037,0.371c-0.297,0.347-0.594,1.214-0.892,2.601
		c-0.173,1.387-0.26,2.192-0.26,2.415c0,0.321,0.037,0.631,0.111,0.929c0.025,0.123,0.186,0.186,0.483,0.186
		c1.362-0.644,2.662-2.167,3.9-4.569c-0.024-0.223,0.05-0.78,0.223-1.672C126.437,135.566,126.45,135.331,126.45,134.984"/>
	<path d="M139.16,140.11l-0.112,0.111c-0.124,0.074-0.173,0.198-0.148,0.372c-1.981,1.485-3.566,2.278-4.755,2.377
		c-0.668,0.024-1.325-0.099-1.969-0.371c-0.545-0.298-0.917-0.693-1.115-1.189c-0.173-0.396-0.297-1.052-0.371-1.969
		c0.768-3.913,2.625-6.971,5.572-9.175c0.099-0.025,0.384-0.075,0.854-0.149c0.396-0.074,0.718,0,0.966,0.224
		c0.272,0.223,0.409,0.532,0.409,0.929c-0.049,0.321-0.086,0.631-0.111,0.929c-0.421,1.436-1.857,3.096-4.309,4.978
		c-0.149,0.124-0.557,0.248-1.226,0.371c-0.396,0.074-0.582,0.298-0.557,0.669c-0.322,0.545-0.458,1.053-0.409,1.523
		c0,0.197,0.099,0.569,0.297,1.114c0.421,0.594,1.102,0.892,2.043,0.892l0.148-0.111c0.396,0,0.941-0.137,1.635-0.409
		c0.693-0.421,1.795-1.016,3.306-1.783c0.025,0.1,0.037,0.186,0.037,0.261C139.346,139.851,139.284,139.986,139.16,140.11
		 M137.005,132.012c-0.074-0.074-0.161-0.148-0.26-0.223c-1.312,0.817-2.452,2.18-3.417,4.086c0.124,0,0.26-0.049,0.409-0.148
		c0.619-0.569,1.238-1.139,1.857-1.708C136.312,133.25,136.783,132.582,137.005,132.012"/>
	<path d="M157.838,134.91c-0.174,0.816-0.335,1.622-0.483,2.414c-0.198,1.016-0.297,1.82-0.297,2.415
		c0,1.089,0.285,2.043,0.854,2.86c-0.248,0.074-0.471,0.111-0.669,0.111c-0.347,0-0.656-0.111-0.929-0.335
		c-0.471-0.817-0.706-1.795-0.706-2.935c0-0.718,0.112-1.622,0.335-2.712l0.52-2.6l-0.037-0.074
		c-0.94,0.718-2.006,1.969-3.194,3.752c-1.263,1.882-2.266,3.17-3.009,3.863c-0.347,0.148-0.657,0.223-0.929,0.223
		c-0.149,0-0.297-0.025-0.446-0.074c-0.421-0.322-0.533-0.867-0.334-1.635c0.272-1.064,0.656-2.477,1.151-4.234
		c0.446-1.635,0.743-3.071,0.892-4.31c0.173-0.223,0.384-0.334,0.632-0.334c0.248,0,0.47,0.136,0.668,0.408
		c0.223,0.272,0.31,0.532,0.26,0.78l-1.597,6.575c0.099-0.272,0.347-0.619,0.743-1.04c1.263-1.759,2.08-2.86,2.452-3.307
		c0.991-1.164,2.018-2.08,3.083-2.749c0.817,0,1.226,0.434,1.226,1.301c0,0.173-0.037,0.445-0.111,0.817
		C157.862,134.464,157.838,134.736,157.838,134.91"/>
	<path d="M167.012,138.327c-0.198,0.1-0.358,0.297-0.482,0.595c-0.174,0.421-0.285,0.656-0.335,0.705
		c-0.297,0.396-0.842,0.954-1.634,1.672c-0.743,1.065-1.833,1.672-3.27,1.82c-0.396,0.025-0.792,0-1.188-0.074
		c-0.966-0.471-1.585-1.387-1.857-2.749c0.074-0.792,0.285-1.646,0.632-2.563c0.223-0.544,0.545-1.35,0.966-2.414
		c0.198-0.223,0.458-0.619,0.78-1.188c0.321-0.496,0.656-0.843,1.003-1.04c0.321-0.545,0.829-0.892,1.522-1.041
		c0.248,0.05,0.656-0.197,1.226-0.742c-0.024-0.1,0.038-0.248,0.187-0.446c0.272-0.024,0.52-0.037,0.742-0.037
		c0.372,0,0.669,0.037,0.892,0.111c1.016,0.719,1.523,1.92,1.523,3.604c0,0.421-0.037,0.867-0.111,1.337
		C167.557,136.321,167.358,137.139,167.012,138.327 M166.381,133.015c-0.074-0.544-0.322-0.916-0.743-1.114l-1.635,0.595
		l0.371,0.445c0.025,0.272,0.05,0.669,0.075,1.189c0,0.445-0.137,0.805-0.409,1.077c-0.124,0.074-0.247,0.124-0.371,0.148
		c-0.347,0.024-0.57-0.384-0.669-1.226c-0.223,0.099-0.508,0.358-0.854,0.78c-0.421,0.495-0.718,0.805-0.892,0.928
		c-0.693,1.486-1.064,2.354-1.114,2.601c-0.223,0.645-0.334,1.264-0.334,1.857c0,0.298,0.024,0.595,0.074,0.892
		c0.173,0.248,0.545,0.396,1.114,0.446c2.823-0.817,4.693-3.071,5.609-6.762C166.529,134.179,166.455,133.56,166.381,133.015"/>
	<path d="M178.292,140.11c-0.322,0.272-0.706,0.632-1.151,1.077c-0.644,0.371-1.188,0.558-1.635,0.558
		c-0.669,0-1.127-0.434-1.374-1.301c-0.05-0.074-0.1-0.235-0.148-0.482c-0.1-0.396-0.198-0.595-0.298-0.595
		c-0.024,0-0.755,0.78-2.191,2.341c-0.916,0.817-2.093,1.324-3.529,1.522c-0.693-0.792-1.04-1.721-1.04-2.786
		c0-0.47,0.074-1.089,0.223-1.857c0.149-0.892,0.235-1.511,0.261-1.857c0.371-1.857,1.064-3.665,2.08-5.423
		c0.272-0.05,0.569,0.037,0.892,0.26c0.074,0.198,0.111,0.371,0.111,0.52c0,0.198-0.1,0.471-0.297,0.817
		c-0.248,0.446-0.385,0.719-0.409,0.817c-0.396,1.164-0.866,2.773-1.411,4.829c-0.05,0.619-0.074,1.152-0.074,1.598
		c0,0.718,0.062,1.226,0.186,1.523c0.644-0.1,1.151-0.272,1.522-0.521c0.025-0.024,0.434-0.347,1.227-0.966
		c0.173-0.347,0.792-1.201,1.857-2.563c0.792-1.015,1.25-1.932,1.374-2.749c0.669-1.609,1.312-2.897,1.932-3.863
		c0.421-0.272,0.706-0.198,0.854,0.224c0.074,0.223,0.111,0.433,0.111,0.631c0,0.372-0.136,0.842-0.408,1.412
		c-0.298,0.644-0.471,1.102-0.521,1.374c-0.693,0.892-1.114,2.192-1.263,3.9c0.024,0.124,0.062,0.458,0.111,1.003
		c0.05,0.422,0.186,0.669,0.408,0.743c0.347-0.074,0.656-0.198,0.929-0.371c0.421-0.298,0.682-0.471,0.78-0.521
		c0.297-0.297,0.73-0.693,1.301-1.188l0.445,0.297C178.998,139.231,178.713,139.764,178.292,140.11"/>
	<path d="M190.979,130.972l0.705,0.148c-0.148,0.372-0.347,0.632-0.594,0.78c-0.471,0.347-0.954,0.693-1.449,1.04
		c-0.248,0.174-0.842,0.272-1.783,0.298l-0.334-0.111c-0.148-0.05-0.26-0.074-0.334-0.074c-0.05,0.371-0.137,0.966-0.261,1.782
		c-1.337,3.69-2.959,6.353-4.866,7.987c-0.445,0.371-1.04,0.471-1.783,0.297c-0.94-0.594-1.411-1.646-1.411-3.157
		c0-0.372,0.024-0.805,0.074-1.301c0.347-1.733,0.656-2.996,0.929-3.789c0.024-0.544,0.173-1.163,0.445-1.857
		c0.396-1.015,0.619-1.609,0.669-1.782c0.223-0.124,0.434-0.187,0.632-0.187c0.297,0,0.557,0.137,0.779,0.409
		c-0.024,0.594-0.186,1.238-0.482,1.932c-0.446,1.016-0.693,1.609-0.743,1.783c-0.024,0.297-0.198,1.064-0.52,2.303
		c-0.224,0.892-0.335,1.647-0.335,2.267c0,1.015,0.186,1.696,0.558,2.043c0.297-0.1,0.606-0.335,0.929-0.706
		c0.471-0.545,0.743-0.854,0.817-0.929c1.164-1.759,1.932-3.021,2.303-3.789c0.693-1.486,1.04-2.897,1.04-4.234
		c0-0.372-0.024-0.743-0.074-1.115c0.198-0.148,0.384-0.223,0.558-0.223c0.173,0,0.396,0.137,0.668,0.409
		c0.298,0.272,0.496,0.433,0.595,0.482c0.347,0.1,0.681,0.148,1.003,0.148c0.421,0,0.842-0.124,1.263-0.371
		C190.545,131.158,190.879,130.997,190.979,130.972"/>
	<path d="M195.39,140.11l-0.111,0.111c-0.124,0.074-0.174,0.198-0.149,0.372c-1.98,1.485-3.565,2.278-4.755,2.377
		c-0.668,0.024-1.324-0.099-1.969-0.371c-0.545-0.298-0.916-0.693-1.114-1.189c-0.173-0.396-0.297-1.052-0.371-1.969
		c0.768-3.913,2.625-6.971,5.572-9.175c0.099-0.025,0.384-0.075,0.854-0.149c0.396-0.074,0.719,0,0.967,0.224
		c0.271,0.223,0.408,0.532,0.408,0.929c-0.05,0.321-0.087,0.631-0.111,0.929c-0.421,1.436-1.857,3.096-4.31,4.978
		c-0.148,0.124-0.557,0.248-1.226,0.371c-0.396,0.074-0.582,0.298-0.558,0.669c-0.321,0.545-0.458,1.053-0.408,1.523
		c0,0.197,0.099,0.569,0.297,1.114c0.421,0.594,1.103,0.892,2.043,0.892l0.149-0.111c0.396,0,0.94-0.137,1.634-0.409
		c0.693-0.421,1.796-1.016,3.307-1.783c0.024,0.1,0.037,0.186,0.037,0.261C195.575,139.851,195.513,139.986,195.39,140.11
		 M193.234,132.012c-0.074-0.074-0.16-0.148-0.26-0.223c-1.312,0.817-2.451,2.18-3.418,4.086c0.124,0,0.261-0.049,0.409-0.148
		c0.619-0.569,1.238-1.139,1.857-1.708C192.541,133.25,193.012,132.582,193.234,132.012"/>
	<path d="M203.25,141.634c-0.272,0.123-0.718,0.358-1.337,0.705c-0.322,0.025-0.843-0.173-1.561-0.594
		c-0.024-0.198-0.124-0.533-0.297-1.003c-0.174-0.471-0.261-0.843-0.261-1.115c-0.197,0.224-0.334,0.422-0.408,0.595
		c-0.916,1.14-1.449,1.783-1.598,1.932c-0.718,0.619-1.485,0.867-2.303,0.743c-0.669-0.521-1.003-1.288-1.003-2.303
		c0-1.759,0.173-3.096,0.52-4.013c0.867-2.377,2.588-4.47,5.164-6.277h0.594c0.57,0,0.854,0.334,0.854,1.003
		c0,0.223-0.074,0.668-0.223,1.337c-0.124,0.322-0.396,0.743-0.817,1.263c-0.074,0.174-0.371,0.347-0.892,0.521
		c0.124-0.644,0.322-1.14,0.595-1.486c0.024-0.074,0.087-0.272,0.186-0.594c0.025-0.05,0.037-0.124,0.037-0.223
		c0-0.075-0.012-0.161-0.037-0.261c0.124-0.099,0.186-0.186,0.186-0.26c-0.148-0.024-0.408,0.186-0.779,0.632
		c-0.075,0.049-0.198,0.161-0.372,0.334c-2.551,2.922-3.851,5.572-3.9,7.949c0.099,0.719,0.322,1.115,0.669,1.189
		c0.842-0.224,1.572-0.867,2.191-1.932c0.693-0.619,1.312-1.734,1.857-3.344c0.272-0.619,0.78-2.191,1.523-4.718
		c0.099-0.223,0.371-0.408,0.817-0.557c0.223,0.247,0.334,0.52,0.334,0.816c0,0.174-0.05,0.409-0.148,0.706
		c-0.1,0.372-0.161,0.619-0.186,0.743c-0.991,2.724-1.486,4.532-1.486,5.424c0,1.164,0.235,1.956,0.706,2.377
		c0.099-0.024,0.408-0.186,0.929-0.482c0.445-0.248,0.718-0.372,0.816-0.372c0.025,0.124,0.038,0.248,0.038,0.372
		C203.659,141.212,203.522,141.51,203.25,141.634"/>
	<path d="M214.496,140.11c-0.321,0.272-0.705,0.632-1.151,1.077c-0.644,0.371-1.188,0.558-1.634,0.558
		c-0.669,0-1.127-0.434-1.375-1.301c-0.05-0.074-0.099-0.235-0.148-0.482c-0.1-0.396-0.198-0.595-0.297-0.595
		c-0.025,0-0.756,0.78-2.192,2.341c-0.916,0.817-2.093,1.324-3.528,1.522c-0.693-0.792-1.041-1.721-1.041-2.786
		c0-0.47,0.075-1.089,0.224-1.857c0.148-0.892,0.235-1.511,0.26-1.857c0.371-1.857,1.064-3.665,2.08-5.423
		c0.272-0.05,0.569,0.037,0.892,0.26c0.074,0.198,0.111,0.371,0.111,0.52c0,0.198-0.099,0.471-0.297,0.817
		c-0.248,0.446-0.384,0.719-0.408,0.817c-0.396,1.164-0.867,2.773-1.412,4.829c-0.05,0.619-0.074,1.152-0.074,1.598
		c0,0.718,0.062,1.226,0.186,1.523c0.644-0.1,1.151-0.272,1.523-0.521c0.024-0.024,0.434-0.347,1.226-0.966
		c0.174-0.347,0.793-1.201,1.857-2.563c0.792-1.015,1.251-1.932,1.374-2.749c0.669-1.609,1.312-2.897,1.932-3.863
		c0.422-0.272,0.706-0.198,0.854,0.224c0.074,0.223,0.112,0.433,0.112,0.631c0,0.372-0.137,0.842-0.409,1.412
		c-0.297,0.644-0.471,1.102-0.52,1.374c-0.694,0.892-1.115,2.192-1.264,3.9c0.025,0.124,0.062,0.458,0.111,1.003
		c0.05,0.422,0.187,0.669,0.409,0.743c0.347-0.074,0.656-0.198,0.929-0.371c0.421-0.298,0.681-0.471,0.78-0.521
		c0.297-0.297,0.73-0.693,1.3-1.188l0.445,0.297C215.202,139.231,214.918,139.764,214.496,140.11"/>
	<path d="M222.886,134.427c-0.347,0.272-0.829,0.718-1.448,1.337c-0.372,0.174-0.78,0.496-1.226,0.966c0,0-0.372,0.372-1.115,1.115
		c0.298,0.619,0.78,1.275,1.449,1.969c0.693,0.668,1.424,1.424,2.191,2.266c-0.792,0.05-1.448-0.161-1.969-0.632
		c-0.371-0.272-0.903-0.73-1.598-1.374l-1.151-1.226c-0.321,0.321-0.99,0.829-2.006,1.522c-0.297,0.248-0.73,0.656-1.3,1.227
		c-0.124,0.049-0.359,0.234-0.706,0.557c-0.322,0.347-0.582,0.521-0.78,0.521c-0.247,0-0.495-0.137-0.743-0.409
		c0-0.371,0.124-0.681,0.372-0.929c0.247-0.272,0.644-0.606,1.188-1.003c0.074-0.024,0.111-0.111,0.111-0.26
		c0.817-0.495,1.895-1.387,3.232-2.675c-0.793-1.907-1.189-3.281-1.189-4.123c0.124-0.495,0.384-1.214,0.78-2.155h0.817
		c0.297,0.075,0.445,0.261,0.446,0.558c-0.001,0.174-0.075,0.521-0.224,1.04c-0.124,0.521-0.161,0.879-0.111,1.077
		c-0.05,0.148-0.074,0.298-0.074,0.446c0,0.198,0.198,0.903,0.595,2.117c0.471-0.347,1.758-1.511,3.863-3.492l1.151,0.261
		C223.518,133.795,223.332,134.229,222.886,134.427"/>
	<path d="M232.174,138.698l3.566-4.531c1.411-1.759,2.823-3.059,4.234-3.9c0.347-0.198,0.793-0.198,1.337,0
		c0.224,0.173,0.384,0.433,0.483,0.779c0.099,0.422,0.186,0.682,0.26,0.78c-0.148,0.372-0.26,0.867-0.334,1.486
		c-0.1,0.792-0.174,1.3-0.223,1.522c-0.57,2.378-0.892,3.728-0.966,4.05c-0.322,1.535-0.533,2.897-0.632,4.086
		c-0.768-0.545-1.151-1.226-1.151-2.043c0-0.297,0.037-0.682,0.111-1.151c0.099-0.595,0.161-0.979,0.186-1.152
		c0.05-0.52,0.322-1.646,0.817-3.38c0.396-1.387,0.557-2.514,0.482-3.381c-0.173-0.074-0.557,0.161-1.151,0.706
		c-1.04,0.941-2.142,2.191-3.306,3.752l-3.009,4.049c-0.224,0.174-0.471,0.458-0.743,0.854c-0.322,0.471-0.558,0.78-0.706,0.929
		c-0.371,0.174-0.656,0.223-0.854,0.148c-0.223-0.421-0.334-0.866-0.334-1.337c0-0.421,0.124-1.016,0.371-1.783
		c0.248-0.768,0.384-1.337,0.409-1.709c0.892-2.649,2.229-6.699,4.012-12.147c-0.05-0.321,0.074-0.644,0.371-0.966
		c-0.024-0.272,0.05-0.52,0.223-0.742c0.198-0.248,0.434-0.372,0.706-0.372c0.248,0,0.483,0.148,0.706,0.446
		c0.074,0.792-0.087,1.572-0.483,2.34c-0.619,1.214-1.015,2.241-1.188,3.083c-0.099,0-0.136,0.074-0.111,0.224
		c-0.595,1.609-1.164,3.244-1.709,4.903C233.301,135.059,232.842,136.544,232.174,138.698"/>
	<path d="M249.724,138.327c-0.198,0.1-0.359,0.297-0.483,0.595c-0.173,0.421-0.284,0.656-0.334,0.705
		c-0.297,0.396-0.842,0.954-1.635,1.672c-0.742,1.065-1.832,1.672-3.269,1.82c-0.396,0.025-0.793,0-1.188-0.074
		c-0.966-0.471-1.585-1.387-1.857-2.749c0.074-0.792,0.284-1.646,0.631-2.563c0.224-0.544,0.545-1.35,0.966-2.414
		c0.198-0.223,0.459-0.619,0.78-1.188c0.322-0.496,0.656-0.843,1.003-1.04c0.322-0.545,0.83-0.892,1.523-1.041
		c0.247,0.05,0.656-0.197,1.226-0.742c-0.024-0.1,0.037-0.248,0.186-0.446c0.272-0.024,0.521-0.037,0.743-0.037
		c0.372,0,0.669,0.037,0.892,0.111c1.016,0.719,1.523,1.92,1.523,3.604c0,0.421-0.037,0.867-0.111,1.337
		C250.269,136.321,250.07,137.139,249.724,138.327 M249.092,133.015c-0.074-0.544-0.321-0.916-0.743-1.114l-1.634,0.595l0.371,0.445
		c0.025,0.272,0.05,0.669,0.074,1.189c0,0.445-0.136,0.805-0.408,1.077c-0.124,0.074-0.248,0.124-0.372,0.148
		c-0.347,0.024-0.569-0.384-0.668-1.226c-0.224,0.099-0.508,0.358-0.854,0.78c-0.421,0.495-0.719,0.805-0.892,0.928
		c-0.693,1.486-1.065,2.354-1.114,2.601c-0.224,0.645-0.335,1.264-0.335,1.857c0,0.298,0.025,0.595,0.074,0.892
		c0.174,0.248,0.545,0.396,1.115,0.446c2.823-0.817,4.692-3.071,5.609-6.762C249.24,134.179,249.166,133.56,249.092,133.015"/>
	<path d="M253.999,133.943c0.793-1.04,1.622-2.006,2.489-2.897c0.866-0.916,1.82-1.424,2.86-1.522c0.47-0.05,0.903,0.024,1.3,0.223
		c0.272,0.371,0.434,0.768,0.483,1.188c0,0.224-0.1,0.904-0.298,2.043l-0.52,0.075c-0.074-0.149-0.148-0.645-0.224-1.486
		c-0.049-0.471-0.16-0.78-0.334-0.929c-1.214,0.371-2.328,1.14-3.343,2.303c-0.471,0.496-0.929,0.991-1.375,1.486
		c-0.52,0.595-0.866,1.164-1.04,1.709c-0.173,0.024-0.334,0.347-0.482,0.966c-0.124,0.445-0.235,0.73-0.335,0.854
		c-0.223,0.396-0.557,1.226-1.003,2.488c0.024,0.198,0.024,0.607,0,1.227c-0.099,0.52-0.347,0.842-0.743,0.966
		c-0.099-0.174-0.198-0.224-0.297-0.149c-0.124,0.124-0.235,0.187-0.334,0.187c-0.198,0-0.372-0.161-0.521-0.483
		c0.396-1.437,1.263-4.767,2.601-9.992c-0.1-0.224-0.148-0.409-0.148-0.558c0-0.272,0.173-0.445,0.52-0.521
		c0.817-0.148,1.251,0.013,1.301,0.483c0,0.05-0.037,0.198-0.111,0.445c-0.075,0.224-0.1,0.521-0.075,0.892
		c-0.148,0.025-0.235,0.062-0.26,0.112c0,0.049,0.013,0.173,0.037,0.371l-0.111,0.334
		C254.036,133.832,254.023,133.895,253.999,133.943"/>
	<path d="M263.544,127.294l-0.111,0.075c-0.05,0.049-0.1,0.173-0.149,0.371c-1.188,0.099-1.819-0.186-1.895-0.854
		c0-0.396,0.137-0.644,0.409-0.743c0.099-0.024,0.396-0.024,0.892,0c0.124,0,0.284-0.037,0.482-0.111
		c0.198,0.074,0.409,0.297,0.632,0.669C263.828,126.898,263.742,127.097,263.544,127.294 M262.949,140.444
		c-0.223,0.372-0.594,0.904-1.114,1.598c-0.966,0.595-1.672,0.879-2.117,0.854c-0.446-0.024-0.941-0.396-1.486-1.114
		c-0.05-0.446-0.074-0.892-0.074-1.338c0-2.6,0.384-5.163,1.151-7.689c0.124-0.396,0.458-1.213,1.003-2.451
		c0.148-0.174,0.347-0.261,0.595-0.261s0.482,0.087,0.706,0.261c0.223,0.173,0.334,0.371,0.334,0.594
		c0,0.124-0.037,0.235-0.111,0.335c-0.446,0.718-0.867,1.659-1.263,2.823l-0.817,3.863c-0.174,0.817-0.211,1.845-0.111,3.083
		c0.049,0.148,0.173,0.347,0.371,0.595c0.099,0.024,0.248-0.05,0.445-0.224c0.198-0.198,0.335-0.31,0.409-0.334
		c0.297-0.198,0.706-0.582,1.226-1.151c0.521-0.57,0.979-0.941,1.375-1.114l0.854-1.004
		C263.878,139.256,263.42,140.147,262.949,140.444"/>
	<path d="M265.971,141.447h0.074c0.075,0,0.161,0.037,0.261,0.111c0.569,0.025,1.572-0.086,3.009-0.334
		c1.288-0.223,2.488-0.223,3.604,0c-0.198,0.198-0.298,0.372-0.298,0.521c-2.551,0.495-4.891,0.817-7.021,0.966
		c-0.272-0.124-0.569-0.261-0.892-0.409c-0.297-0.148-0.521-0.321-0.669-0.52c-0.049-0.372,0.198-0.756,0.743-1.151
		c1.461-0.669,3.194-1.585,5.201-2.749c0.544-0.322,1.473-1.028,2.786-2.118c0.074-0.123,0.173-0.297,0.297-0.52
		c-0.669-0.421-1.486-0.632-2.452-0.632c-0.594,0-1.696,0.161-3.306,0.483c-0.347,0.074-0.817-0.087-1.412-0.483
		c-0.074-0.148-0.111-0.284-0.111-0.408c0-0.224,0.161-0.372,0.483-0.446c0.049-0.024,0.136-0.049,0.26-0.074
		c0.099,0.025,0.198,0.037,0.297,0.037c0.148,0,0.372-0.037,0.669-0.111c0.322-0.099,0.569-0.136,0.743-0.111
		c0.99-0.099,1.771-0.148,2.34-0.148c1.733,0,3.009,0.384,3.826,1.151c0.124,0.148,0.186,0.334,0.186,0.558
		c0,0.223-0.074,0.495-0.223,0.816l-0.186,0.149l-0.037,0.074c-0.074,0.099-0.211,0.235-0.408,0.408
		c-0.025,0.124-0.1,0.223-0.224,0.297l-0.371,0.149c-0.024,0.049-0.05,0.123-0.074,0.223c-0.248,0.099-0.632,0.359-1.151,0.78
		c-0.496,0.396-0.904,0.644-1.227,0.742c-0.495,0.348-1.287,0.806-2.377,1.375c-0.198,0.198-0.595,0.445-1.188,0.743
		C266.776,140.891,266.392,141.101,265.971,141.447"/>
	<path d="M282.373,138.327c-0.198,0.1-0.359,0.297-0.483,0.595c-0.173,0.421-0.284,0.656-0.334,0.705
		c-0.297,0.396-0.842,0.954-1.635,1.672c-0.743,1.065-1.832,1.672-3.269,1.82c-0.396,0.025-0.793,0-1.188-0.074
		c-0.966-0.471-1.585-1.387-1.857-2.749c0.074-0.792,0.284-1.646,0.631-2.563c0.224-0.544,0.545-1.35,0.966-2.414
		c0.198-0.223,0.458-0.619,0.78-1.188c0.322-0.496,0.656-0.843,1.003-1.04c0.322-0.545,0.83-0.892,1.523-1.041
		c0.247,0.05,0.656-0.197,1.226-0.742c-0.024-0.1,0.037-0.248,0.186-0.446c0.272-0.024,0.521-0.037,0.743-0.037
		c0.371,0,0.669,0.037,0.892,0.111c1.016,0.719,1.523,1.92,1.523,3.604c0,0.421-0.037,0.867-0.112,1.337
		C282.918,136.321,282.72,137.139,282.373,138.327 M281.741,133.015c-0.074-0.544-0.322-0.916-0.743-1.114l-1.634,0.595l0.371,0.445
		c0.024,0.272,0.05,0.669,0.074,1.189c0,0.445-0.136,0.805-0.408,1.077c-0.124,0.074-0.248,0.124-0.372,0.148
		c-0.347,0.024-0.569-0.384-0.668-1.226c-0.224,0.099-0.508,0.358-0.854,0.78c-0.421,0.495-0.719,0.805-0.892,0.928
		c-0.693,1.486-1.065,2.354-1.114,2.601c-0.224,0.645-0.335,1.264-0.335,1.857c0,0.298,0.025,0.595,0.074,0.892
		c0.174,0.248,0.545,0.396,1.115,0.446c2.822-0.817,4.692-3.071,5.608-6.762C281.89,134.179,281.815,133.56,281.741,133.015"/>
	<path d="M292.062,134.91c-0.173,0.816-0.334,1.622-0.482,2.414c-0.198,1.016-0.298,1.82-0.298,2.415
		c0,1.089,0.285,2.043,0.854,2.86c-0.247,0.074-0.471,0.111-0.668,0.111c-0.348,0-0.657-0.111-0.929-0.335
		c-0.471-0.817-0.706-1.795-0.706-2.935c0-0.718,0.111-1.622,0.334-2.712l0.521-2.6l-0.037-0.074
		c-0.941,0.718-2.006,1.969-3.195,3.752c-1.263,1.882-2.266,3.17-3.009,3.863c-0.347,0.148-0.656,0.223-0.929,0.223
		c-0.148,0-0.297-0.025-0.445-0.074c-0.421-0.322-0.533-0.867-0.335-1.635c0.272-1.064,0.656-2.477,1.152-4.234
		c0.445-1.635,0.742-3.071,0.891-4.31c0.174-0.223,0.385-0.334,0.632-0.334c0.248,0,0.471,0.136,0.669,0.408
		c0.223,0.272,0.31,0.532,0.26,0.78l-1.598,6.575c0.1-0.272,0.347-0.619,0.743-1.04c1.264-1.759,2.08-2.86,2.452-3.307
		c0.99-1.164,2.019-2.08,3.083-2.749c0.817,0,1.226,0.434,1.226,1.301c0,0.173-0.037,0.445-0.111,0.817
		C292.088,134.464,292.062,134.736,292.062,134.91"/>
	<path d="M294.885,135.652c0.124,0.025,0.173,0.037,0.148,0.037c-0.024,0.025-0.05,0.037-0.074,0.037l0.408,0.111
		c-0.024,0.124,0.037,0.211,0.187,0.261c0.024,0,0.074,0.024,0.148,0.074c0.05-0.025,0.111-0.037,0.186-0.037h0.26
		c0.124,0.223,0.446,0.421,0.966,0.594c0.545,0.174,0.892,0.347,1.04,0.521c1.09,0.545,1.722,1.201,1.895,1.969
		c0,0.521-0.247,1.077-0.742,1.672c-0.1,0-0.187,0.062-0.261,0.186s-0.136,0.211-0.186,0.26c-1.461,0.991-2.786,1.449-3.975,1.375
		c-0.743-0.05-1.399-0.285-1.969-0.706c-0.198-0.793-0.297-1.114-0.297-0.966c0-0.248,0.16-0.483,0.482-0.706
		c0.074,0.148,0.297,0.495,0.669,1.04c0.173,0.272,0.421,0.372,0.743,0.298c1.213-0.298,1.98-0.521,2.303-0.669
		c0.892-0.371,1.486-0.879,1.783-1.523c-0.074-0.594-0.892-1.213-2.452-1.857c-0.495-0.197-1.114-0.482-1.857-0.854
		c-0.619-0.421-0.916-0.99-0.892-1.708c0.248-0.347,0.656-0.743,1.227-1.189c0.742-0.545,1.201-0.903,1.374-1.077
		c0.347-0.247,0.892-0.532,1.635-0.854c0.347-0.197,1.201-0.557,2.563-1.077c0.445,0.1,0.681,0.148,0.705,0.148
		c0.272,0.1,0.421,0.272,0.446,0.521c0,0.198-0.161,0.384-0.483,0.557c-0.173,0.05-0.434,0.161-0.78,0.335
		c-0.321,0.148-0.569,0.247-0.742,0.297c-0.074,0-0.632,0.248-1.672,0.743c-1.214,0.595-2.093,1.201-2.638,1.82
		c0,0.05-0.062,0.173-0.186,0.371H294.885"/>
	<path fill="#BECE12" d="M10.655,109.237h287.144c3.133,0,5.655-3.362,5.655-7.541V41.958c0-4.177-2.522-7.542-5.655-7.542H10.655
		C7.523,34.416,5,37.781,5,41.958v59.738C5.001,105.874,7.523,109.237,10.655,109.237L10.655,109.237L10.655,109.237L10.655,109.237
		z"/>
	<path fill="#828689" d="M86.487,102.457c5.191-0.416,9.782-0.371,11.151-1.053c2.477-1.242,8.494-6.672,9.441-8.531
		c0.955-1.872,1.195-3.547,0.753-5.251c-0.682-2.637-0.972-2.934-9.35-9.511c-3.424-2.687-6.329-5.051-6.447-5.245
		c-0.154-0.257-0.878-0.872-0.1-2.271c2.267-4.081,6.591-13.78,6.591-20.698c0-7.129-1.493-12.678-4.799-17.845
		c-0.391-0.611-0.71-1.247-0.71-1.421v-0.007v-0.008c0.117-0.285,2.683-2.915,6.364-6.593c3.757-3.75,7.623-7.831,8.021-8.415
		c1.96-2.896,1.752-6.199-0.497-7.897c-1.298-0.985-5.403-3.053-6.765-3.412c-0.854-0.225-1.593-0.583-3.567,0.094l-3.216,1.129
		l-1.491,1.267c-0.383,0.009,1.425,1.81-2.161,1.788 M91.483,7.09c1.022,1.588,2.741,4.27,0.626,6.479
		c-3.025,3.16-16.216,10.706-15.947,7.812c0.332-3.558,1.375-4.315-1.803-4.411c-17.932-0.535-21.718,2.854-28.662,6.583
		c-0.864,0.463-1.174,0.659-1.452,0.869c-0.442,0.335,0.423,1.451,1.837,4.04c0.313,0.572-1.083,0.747-1.283,0.755
		c0,0-0.004,0-0.008,0s-0.009-0.007-0.015-0.007c-0.254-0.055-1.925-1.245-3.764-2.695c-1.888-1.486-3.436-2.121-3.832-2.325
		c-0.829-0.423-3.15-0.166-4.343-0.166c-1.121,0-11.111-0.149-12.301,0.254c-1.786,0.605,4.785,6.065,4.146,7.437
		c-0.693,1.487-0.823,3.8-0.272,4.877c0.189,0.369,1.947,2.132,3.903,3.915c1.927,1.755,3.538,3.333,3.624,3.548
		c0,0-0.002,0.006,0,0.007c0,0.004,0.005,0.015,0.007,0.022c0.004,0.22-0.373,1.09-0.854,1.981
		c-2.825,5.195-4.698,11.775-5.051,17.716c-0.292,4.943,0.262,9.302,1.731,13.476c0.463,1.318,0.688,2.24,0.616,2.523
		c-0.004,0.016-0.016,0.029-0.022,0.043c-0.105,0.184-1.581,1.787-3.281,3.562c-6.987,7.288-7.334,7.783-7.51,10.658
		c-0.13,2.165-0.295,2.738,1.81,5.408c1.509,1.911,0.738,3.146,1.796,3.591c0.9,0.38,5.277,0.565,6.33,0.027
		c0.512-0.262,3.748-2.938,6.421-5.608c2.625-2.619,4.949-4.819,5.193-4.918c0.001,0,0.007-0.005,0.007-0.007
		c0.232-0.062,1.334,0.383,2.562,1.032c8.821,4.668,19.905,5.148,30.903,1.329c2.048-0.711,6.519-2.791,8.79-4.084
		c1.07-0.612,1.413-0.708,1.878-0.528c0.312,0.121-0.924,2.092,1.609,4.377c6.468,5.851-1.408,6.734,0.249,7.513 M68.53,33.217
		c0.174-0.002,0.355,0,0.53,0c3.149,0,4.467,0.234,7.505,1.365c4.305,1.602,8.074,5.401,9.829,9.908
		c0.732,1.881,1.375,5.239,1.377,7.207c0.002,3.376-1.32,8.574-3.035,11.952c-1.161,2.289-3.398,5.364-5.437,7.468
		c-4.024,4.154-8.725,6.983-14.134,8.495c-1.707,0.476-2.7,0.594-5.631,0.667c-1.958,0.05-8.167,0.136-8.706-0.073
		c-5.875-2.287-9.794-6.204-12.405-14.039c-2.938-8.815-2.704-19.265,7.168-27.06C51.956,34.081,61.209,33.357,68.53,33.217
		L68.53,33.217L68.53,33.217L68.53,33.217z"/>
	<path fill="#BECE12" d="M88.727,104.944c1.552,1.018,5.031,0.124,7.015-0.877c2.49-1.262,7.49-7.175,8.443-9.063
		c0.959-1.898,1.512-3.074,1.067-4.806c-0.686-2.678-0.242-3.106-8.661-9.786c-3.441-2.73-6.364-5.129-6.481-5.326
		c-0.155-0.262,0.077-0.89,0.863-2.31c3.675-6.624,5.661-13.991,5.661-21.016c0-7.238-1.5-12.876-4.824-18.121
		c-0.394-0.622-0.713-1.269-0.713-1.445v-0.007v-0.007c0.118-0.289,3.165-3.495,6.864-7.231c3.777-3.809,7.195-7.416,7.596-8.009
		c1.97-2.938,1.761-6.294-0.5-8.021c-1.305-0.997-5.431-3.1-6.799-3.464c-0.858-0.229-1.573-0.337-2.316-0.315l0,0l0,0
		c-0.656,0.016-1.331,0.132-2.156,0.346c-1.919,0.495-3.96,1.504-5.299,2.619c-0.61,0.509-3.598,3.551-6.642,6.765
		c-3.042,3.21-5.733,5.935-5.977,6.045c-0.292,0.137-1.095,0.043-2.358-0.273c-10.222-2.546-21.997-0.5-32.404,5.629
		c-2.373,1.398-3.939,2.45-5.526,3.726c-0.511,0.411-1.088,0.753-1.291,0.763c0,0-0.004,0-0.007,0s-0.009-0.007-0.015-0.007
		c-0.256-0.055-1.934-1.263-3.784-2.734c-1.899-1.509-3.754-2.945-4.168-3.118c-1.607-0.675-4.669-0.434-6.039,0.212
		c-1.723,0.809-5.561,6.798-6.205,8.188c-0.697,1.512-0.827,3.861-0.275,4.952c0.19,0.377,1.956,2.169,3.923,3.979
		c1.938,1.782,3.556,3.381,3.643,3.601c0,0,0,0.006,0,0.008c0,0.003,0.007,0.015,0.007,0.022c0.005,0.222-0.371,1.108-0.858,2.013
		c-2.838,5.276-4.721,11.957-5.076,17.993c-0.294,5.017,0.266,9.446,1.739,13.685c0.465,1.336,0.692,2.274,0.62,2.56
		c-0.005,0.018-0.015,0.032-0.022,0.045c-0.107,0.184-1.589,1.813-3.297,3.615C7.448,93.179,7.1,93.681,6.923,96.6
		c-0.131,2.199,0.257,3.171,2.372,5.882c1.518,1.947,2.52,2.875,3.584,3.327c0.901,0.383,3.664,0.156,4.722-0.389
		c0.514-0.266,3.075-2.642,5.762-5.35c2.639-2.658,4.974-4.895,5.22-4.995c0.002,0,0.007-0.005,0.007-0.007
		c0.234-0.062,1.341,0.389,2.575,1.047c8.866,4.742,20.007,5.229,31.063,1.351c2.057-0.724,6.551-2.834,8.835-4.15
		c1.075-0.621,1.421-0.717,1.889-0.532c0.314,0.12,2.648,2.12,5.193,4.443c6.502,5.939,6.891,6.26,8.56,7.05
		c0.639,0.307,1.637,0.778,2.965,1.038 M58.143,34.823c0.176-0.003,0.357,0,0.532,0c3.167,0,4.492,0.239,7.545,1.386
		c4.327,1.625,8.116,5.484,9.879,10.061c0.735,1.912,1.382,5.321,1.384,7.321c0.002,3.428-1.326,8.706-3.049,12.136
		c-1.167,2.326-3.416,5.445-5.466,7.585c-4.044,4.22-8.768,7.09-14.206,8.625c-1.716,0.485-2.713,0.604-5.661,0.679
		c-1.965,0.05-4.045-0.02-4.613-0.144c-9.364-2.058-14.989-9.026-15-18.599c-0.009-7.256,3.083-14.242,8.884-20.087
		C44.145,37.975,50.785,34.962,58.143,34.823L58.143,34.823L58.143,34.823L58.143,34.823z"/>
	<path fill="#FFFFFF" d="M92.777,6.349c-0.635,0.017-1.288,0.129-2.087,0.338c-0.364,0.094-0.733,0.208-1.101,0.337
		c-1.505,0.535-2.986,1.341-4.027,2.216c-0.59,0.499-3.481,3.465-6.428,6.599c-2.943,3.133-5.547,5.791-5.783,5.901
		c-0.283,0.132-1.06,0.04-2.283-0.268c-9.89-2.486-21.284-0.489-31.355,5.491c-2.297,1.364-3.812,2.391-5.346,3.635
		c-0.494,0.403-1.052,0.737-1.249,0.747c0,0-0.004,0-0.007,0s-0.009-0.007-0.014-0.007c-0.247-0.053-1.871-1.232-3.663-2.668
		c-1.836-1.473-3.648-2.841-4.033-3.044c-1.608-0.838-4.182-0.318-6.147,1.255c-1.444,1.152-5.078,5.583-5.7,6.94
		c-0.675,1.474-0.801,3.765-0.266,4.83c0.184,0.367,1.892,2.116,3.796,3.883c1.875,1.739,3.439,3.3,3.524,3.513c0,0,0,0.005,0,0.009
		c0,0.005,0.007,0.014,0.007,0.021c0.005,0.217-0.359,1.082-0.831,1.964c-2.747,5.146-4.569,11.667-4.912,17.555
		c-0.285,4.896,0.256,9.214,1.682,13.352c0.451,1.305,0.67,2.219,0.6,2.499c-0.004,0.016-0.014,0.03-0.021,0.043
		c-0.102,0.181-1.537,1.769-3.19,3.527c-6.796,7.224-7.134,7.713-7.303,10.561c-0.126,2.147,0.249,3.096,2.295,5.74
		c1.467,1.898,2.438,2.805,3.469,3.244c0.872,0.375,3.546,0.154,4.569-0.378c0.498-0.259,2.975-2.576,5.576-5.22
		c2.553-2.592,4.812-4.773,5.051-4.874c0.002,0,0.007-0.004,0.007-0.007c0.226-0.059,1.297,0.381,2.492,1.024
		c8.58,4.624,19.36,5.1,30.058,1.315c1.99-0.703,6.338-2.766,8.549-4.047c1.041-0.605,1.375-0.701,1.827-0.522
		c0.304,0.12,2.562,2.071,5.025,4.338c6.292,5.795,6.669,6.106,8.284,6.88c2.474,1.189,6.183,1.1,8.743-0.203
		c2.408-1.23,8.26-6.608,9.182-8.451c0.929-1.854,1.163-3.514,0.733-5.202c-0.664-2.612-0.946-2.906-9.094-9.424
		c-3.33-2.663-6.156-5.003-6.271-5.196c-0.148-0.257,0.074-0.87,0.835-2.254c3.557-6.461,5.478-13.651,5.478-20.506
		c0-7.063-1.451-12.562-4.667-17.68c-0.38-0.605-0.691-1.237-0.691-1.41V32.74v-0.007c0.114-0.282,3.062-3.412,6.643-7.058
		c3.655-3.716,6.961-7.234,7.349-7.814c1.907-2.866,1.704-6.14-0.484-7.824c-1.262-0.972-5.256-3.023-6.578-3.379
		C94.186,6.434,93.496,6.327,92.777,6.349L92.777,6.349L92.777,6.349L92.777,6.349z M56.2,35.309c0.17-0.002,0.346,0,0.516,0
		c3.063,0,4.345,0.233,7.3,1.353c4.187,1.587,7.854,5.35,9.559,9.817c0.712,1.864,1.338,5.191,1.34,7.141
		c0.002,3.345-1.283,8.494-2.952,11.842c-1.13,2.269-3.305,5.314-5.289,7.401c-3.914,4.117-8.483,6.917-13.746,8.415
		c-1.659,0.474-2.625,0.59-5.478,0.661c-1.903,0.05-3.914-0.019-4.465-0.142c-9.06-2.005-14.502-8.805-14.514-18.145
		c-0.009-7.08,2.982-13.896,8.596-19.599C42.654,38.383,49.08,35.446,56.2,35.309L56.2,35.309L56.2,35.309L56.2,35.309z"/>
	<path d="M146.361,45.612c-0.631,0-1.186,0.166-1.666,0.497c-0.454,0.31-0.744,0.741-0.871,1.293l-3.975,20.789
		c-0.025,0.111-0.038,0.276-0.038,0.498c0,0.398,0.151,0.718,0.455,0.961c0.303,0.243,0.681,0.365,1.135,0.365
		c0.479,0,0.858-0.122,1.136-0.365c0.303-0.243,0.492-0.563,0.568-0.961l3.293-19.429l6.625,19.694h3.256l6.662-19.694l3.445,20.656
		l3.255-0.497l-4.164-22.016c-0.101-0.552-0.391-0.983-0.87-1.293c-0.479-0.332-1.035-0.497-1.666-0.497s-1.148,0.154-1.552,0.464
		c-0.379,0.31-0.656,0.718-0.833,1.227l-5.905,17.738l-5.868-17.738c-0.177-0.508-0.467-0.917-0.871-1.227
		S146.992,45.612,146.361,45.612"/>
	<path d="M182.381,45.612c-0.631,0-1.123,0.188-1.477,0.563c-0.353,0.354-0.631,0.763-0.832,1.227l-8.707,20.523
		c-0.126,0.287-0.189,0.553-0.189,0.796c0,0.375,0.139,0.696,0.416,0.961c0.303,0.265,0.682,0.398,1.136,0.398
		c0.354,0,0.669-0.1,0.946-0.298c0.278-0.177,0.479-0.409,0.606-0.696l1.931-4.476h12.567l2.386,5.471l3.255-0.829l-9.502-21.85
		c-0.252-0.575-0.555-1.017-0.908-1.326C183.681,45.767,183.138,45.612,182.381,45.612 M177.119,62.09l5.375-13.03l5.338,13.03
		H177.119"/>
	<path d="M196.584,69.75h3.294V58.311L212.9,69.55c0.378,0.332,0.832,0.498,1.362,0.498c0.403,0,0.757-0.122,1.06-0.365
		s0.455-0.553,0.455-0.928c0-0.42-0.189-0.796-0.568-1.127l-12.303-10.51l11.772-9.615l-2.347-1.857L199.84,55.957v-8.952
		c0-0.42-0.164-0.762-0.492-1.028c-0.328-0.265-0.72-0.397-1.174-0.397c-0.429,0-0.808,0.144-1.136,0.431
		c-0.303,0.288-0.454,0.619-0.454,0.995V69.75"/>
	<path d="M218.1,69.75h3.256V47.071c0-0.398-0.151-0.74-0.454-1.028c-0.303-0.287-0.682-0.431-1.136-0.431s-0.846,0.144-1.174,0.431
		c-0.328,0.288-0.492,0.63-0.492,1.028V69.75 M218.327,43.557c0,0.309,0.139,0.585,0.416,0.829c0.277,0.221,0.593,0.332,0.946,0.332
		c0.379,0,0.694-0.11,0.946-0.332c0.278-0.243,0.417-0.53,0.417-0.862s-0.139-0.608-0.417-0.829
		c-0.277-0.221-0.593-0.332-0.946-0.332c-0.403,0-0.731,0.122-0.984,0.365C218.453,42.949,218.327,43.225,218.327,43.557"/>
	<path d="M223.867,69.716l3.255,0.033V50.784l14.65,18.667c0.328,0.42,0.782,0.63,1.363,0.63c0.454,0,0.832-0.133,1.136-0.398
		c0.328-0.288,0.492-0.63,0.492-1.028V47.071c0-0.398-0.164-0.74-0.492-1.028c-0.304-0.31-0.694-0.464-1.174-0.464
		c-0.429,0-0.808,0.154-1.136,0.464c-0.303,0.31-0.454,0.652-0.454,1.028l0.038,17.771l-14.65-18.633
		c-0.328-0.42-0.782-0.63-1.363-0.63c-0.454,0-0.845,0.144-1.173,0.431c-0.328,0.288-0.492,0.63-0.492,1.028V69.716"/>
	<path d="M258.758,45.612c-0.631,0-1.123,0.188-1.477,0.563c-0.353,0.354-0.631,0.763-0.832,1.227l-8.707,20.523
		c-0.126,0.287-0.189,0.553-0.189,0.796c0,0.375,0.139,0.696,0.416,0.961c0.304,0.265,0.682,0.398,1.136,0.398
		c0.354,0,0.669-0.1,0.946-0.298c0.278-0.177,0.479-0.409,0.606-0.696l1.931-4.476h12.567l2.386,5.471l3.255-0.829l-9.502-21.85
		c-0.252-0.575-0.555-1.017-0.908-1.326C260.058,45.767,259.515,45.612,258.758,45.612 M253.496,62.09l5.375-13.03l5.338,13.03
		H253.496"/>
	<path d="M153.059,97.107c0-0.817-0.341-1.491-1.022-2.022c-0.682-0.53-1.502-0.796-2.461-0.796c-0.429,0-0.845,0.066-1.249,0.199
		c-0.378,0.11-0.77,0.255-1.173,0.432c-0.479,0.198-1.01,0.397-1.59,0.597c-0.58,0.177-1.199,0.265-1.854,0.265
		c-0.884,0-1.666-0.177-2.347-0.53c-0.656-0.354-1.199-0.817-1.628-1.393c-0.429-0.597-0.757-1.271-0.984-2.022
		c-0.202-0.773-0.303-1.569-0.303-2.387c0-0.796,0.101-1.536,0.303-2.222c0.227-0.707,0.542-1.337,0.946-1.89
		c0.429-0.575,0.947-1.05,1.552-1.426c0.606-0.376,1.3-0.63,2.082-0.763c0.328-0.066,0.618-0.1,0.871-0.1
		c0.883,0,1.704,0.166,2.461,0.497c0.782,0.332,1.54,0.763,2.271,1.293c0.303,0.133,0.619,0.188,0.947,0.166
		c0.328-0.044,0.58-0.177,0.757-0.397l1.931-3.515c0.101-0.133,0.114-0.276,0.038-0.432c-0.051-0.154-0.164-0.287-0.341-0.397
		c-0.505-0.398-1.123-0.773-1.855-1.127c-0.707-0.354-1.477-0.663-2.309-0.928c-0.808-0.265-1.628-0.475-2.461-0.63
		c-0.833-0.155-1.603-0.232-2.309-0.232h-0.833c-1.767,0.155-3.37,0.597-4.808,1.326c-1.438,0.707-2.675,1.614-3.709,2.718
		c-1.01,1.084-1.805,2.332-2.385,3.747c-0.555,1.393-0.833,2.862-0.833,4.409c0,1.305,0.227,2.575,0.681,3.813
		c0.455,1.237,1.085,2.387,1.893,3.448v-0.033c1.161,1.592,2.663,2.818,4.505,3.68c1.842,0.841,3.924,1.261,6.246,1.261
		c0.581,0,1.199-0.033,1.855-0.1s1.299-0.177,1.931-0.332c0.656-0.177,1.287-0.387,1.893-0.63s1.148-0.553,1.628-0.928
		c0.429-0.332,0.808-0.708,1.136-1.128C152.882,98.158,153.059,97.66,153.059,97.107"/>
	<path d="M180.021,89.482c0-1.636-0.328-3.194-0.984-4.676c-0.656-1.48-1.564-2.785-2.726-3.912s-2.549-2.022-4.164-2.686
		s-3.382-0.995-5.3-0.995c-1.943,0-3.723,0.332-5.338,0.995s-3.003,1.559-4.164,2.686c-1.161,1.105-2.069,2.398-2.726,3.879
		c-0.656,1.481-0.984,3.051-0.984,4.709c0,1.635,0.328,3.193,0.984,4.675c0.656,1.48,1.564,2.785,2.726,3.912
		s2.549,2.022,4.164,2.686s3.395,0.995,5.338,0.995c1.918,0,3.685-0.332,5.3-0.995s3.003-1.547,4.164-2.652
		c1.161-1.127,2.069-2.432,2.726-3.912C179.693,92.709,180.021,91.14,180.021,89.482 M172.147,89.647
		c0,0.796-0.113,1.581-0.341,2.354s-0.568,1.459-1.022,2.056s-1.021,1.083-1.703,1.459c-0.656,0.354-1.426,0.53-2.31,0.53
		c-0.908,0-1.69-0.188-2.347-0.563c-0.656-0.398-1.199-0.906-1.628-1.525c-0.429-0.641-0.757-1.349-0.984-2.122
		c-0.202-0.773-0.303-1.559-0.303-2.354c0-0.774,0.101-1.548,0.303-2.321c0.228-0.796,0.556-1.503,0.984-2.122
		s0.972-1.116,1.628-1.492c0.656-0.397,1.438-0.597,2.347-0.597c0.934,0,1.741,0.199,2.423,0.597
		c0.682,0.376,1.236,0.885,1.666,1.525c0.429,0.619,0.744,1.337,0.946,2.155C172.034,88.023,172.147,88.83,172.147,89.647"/>
	<path d="M203.769,99.462c0.277-0.11,0.441-0.254,0.491-0.431c0.051-0.199-0.037-0.388-0.265-0.564l-6.322-6.863
		c0.783-0.221,1.515-0.519,2.196-0.895s1.262-0.818,1.741-1.326c0.505-0.531,0.896-1.128,1.174-1.791
		c0.303-0.685,0.454-1.447,0.454-2.287c0-1.216-0.24-2.277-0.72-3.184s-1.136-1.668-1.968-2.288
		c-0.808-0.641-1.767-1.149-2.878-1.525c-1.11-0.376-2.296-0.652-3.558-0.829c-0.127-0.022-0.328-0.033-0.606-0.033
		c-0.277-0.022-0.618-0.033-1.021-0.033c-0.505,0-1.11,0.011-1.817,0.033c-0.682,0-1.362,0.011-2.044,0.033
		c-0.454,0.022-0.884,0.033-1.287,0.033c-0.404,0-0.782,0-1.136,0c-0.328,0-0.618,0-0.871,0c-0.252,0-0.441-0.011-0.567-0.033
		c-0.354-0.044-0.656,0.011-0.909,0.166c-0.227,0.133-0.34,0.31-0.34,0.53v20.357c0,0.442,0.101,0.862,0.303,1.26
		c0.201,0.376,0.479,0.708,0.833,0.995c0.353,0.287,0.757,0.52,1.211,0.696s0.946,0.266,1.477,0.266
		c0.505,0,0.984-0.089,1.438-0.266c0.479-0.154,0.883-0.376,1.211-0.663c0.354-0.287,0.631-0.619,0.833-0.995
		c0.202-0.375,0.303-0.784,0.303-1.227v-4.343l6.738,7.857c0.177,0.133,0.404,0.21,0.682,0.232c0.303,0.021,0.58-0.012,0.833-0.1
		L203.769,99.462 M195.629,85.305c0,0.53-0.164,0.983-0.492,1.359c-0.328,0.375-0.719,0.563-1.173,0.563h-2.84v-3.945h2.688
		c0.504,0,0.934,0.198,1.287,0.597C195.452,84.276,195.629,84.752,195.629,85.305"/>
	<path d="M227.949,85.769c0-0.509-0.038-0.962-0.113-1.359c-0.278-1.658-1.048-3.028-2.31-4.111
		c-1.236-1.083-2.726-1.801-4.467-2.155v0.033c-1.061-0.221-2.133-0.375-3.218-0.464c-1.086-0.111-2.196-0.166-3.332-0.166h-5.564
		c-0.303,0-0.567,0.078-0.795,0.232c-0.202,0.133-0.303,0.288-0.303,0.464v20.225c0,0.442,0.101,0.862,0.303,1.261
		c0.202,0.375,0.467,0.718,0.795,1.027c0.354,0.287,0.757,0.52,1.212,0.696c0.479,0.177,0.983,0.266,1.514,0.266
		c0.757,0,1.363-0.145,1.817-0.432c0.479-0.31,0.87-0.663,1.174-1.061c0.176-0.243,0.315-0.608,0.416-1.095
		c0.101-0.508,0.177-1.061,0.228-1.657c0.05-0.597,0.075-1.193,0.075-1.791c0.025-0.597,0.038-1.116,0.038-1.558v-0.133
		c0.631,0,1.3,0,2.006,0c0.732,0,1.25-0.022,1.553-0.066h-0.038c1.287-0.089,2.473-0.343,3.559-0.763
		c1.11-0.42,2.069-0.973,2.877-1.657c0.808-0.708,1.438-1.548,1.893-2.521S227.949,86.94,227.949,85.769 M220.453,85.802
		c0,0.663-0.227,1.237-0.681,1.724s-1.01,0.729-1.666,0.729h-2.649v-4.939h2.649c0.631,0,1.174,0.243,1.628,0.729
		C220.214,84.509,220.453,85.095,220.453,85.802"/>
	<path d="M254.732,91.736V80.53c0-0.442-0.101-0.851-0.303-1.227c-0.202-0.398-0.492-0.74-0.871-1.028
		c-0.353-0.31-0.77-0.553-1.249-0.729c-0.454-0.177-0.946-0.265-1.477-0.265c-0.529,0-1.034,0.088-1.514,0.265
		c-0.454,0.155-0.858,0.387-1.212,0.696c-0.328,0.288-0.593,0.63-0.795,1.028c-0.201,0.376-0.303,0.785-0.303,1.227v11.339
		c0,1.305-0.391,2.343-1.173,3.117c-0.783,0.773-1.817,1.16-3.104,1.16s-2.335-0.387-3.143-1.16
		c-0.782-0.774-1.173-1.812-1.173-3.117v-13.66c0-0.177-0.114-0.332-0.341-0.464c-0.202-0.155-0.454-0.232-0.757-0.232h-5.451
		c-0.328,0-0.606,0.078-0.833,0.232c-0.202,0.132-0.303,0.287-0.303,0.464v13.561c0,1.569,0.303,2.974,0.908,4.211
		c0.605,1.216,1.438,2.255,2.498,3.117c1.086,0.861,2.36,1.524,3.824,1.989c1.463,0.441,3.054,0.663,4.77,0.663
		s3.306-0.222,4.77-0.663c1.464-0.465,2.726-1.128,3.786-1.989c1.085-0.862,1.931-1.901,2.536-3.117
		C254.43,94.71,254.732,93.306,254.732,91.736"/>
	<path d="M268.537,86.067L268.537,86.067c0.025,0,0.025-0.012,0-0.033l-0.151-0.033C268.386,86.001,268.436,86.022,268.537,86.067
		c-0.126,0-0.266-0.045-0.417-0.133c-0.227-0.066-0.479-0.144-0.757-0.232c-0.252-0.088-0.492-0.199-0.719-0.331
		c-0.202-0.133-0.379-0.288-0.53-0.465c-0.126-0.177-0.189-0.387-0.189-0.63c0-0.42,0.177-0.74,0.53-0.961
		c0.354-0.222,0.693-0.332,1.021-0.332c0.505,0,0.972,0.077,1.401,0.232c0.454,0.133,0.908,0.276,1.362,0.431
		c0.43,0.155,0.858,0.299,1.287,0.431c0.43,0.133,0.909,0.199,1.438,0.199c0.959,0,1.741-0.276,2.348-0.829
		c0.631-0.574,0.946-1.237,0.946-1.989c0-0.773-0.303-1.426-0.909-1.956c-0.58-0.53-1.287-0.961-2.119-1.293
		c-0.833-0.332-1.704-0.563-2.612-0.696c-0.908-0.155-1.679-0.232-2.31-0.232c-1.211,0-2.41,0.166-3.596,0.497
		c-1.187,0.332-2.259,0.818-3.218,1.459c-0.935,0.619-1.704,1.404-2.31,2.354c-0.58,0.929-0.871,1.989-0.871,3.183
		c0,1.128,0.228,2.067,0.682,2.818c0.479,0.752,1.085,1.382,1.817,1.891c0.757,0.508,1.603,0.928,2.536,1.26
		c0.934,0.331,1.88,0.641,2.839,0.928c0.606,0.177,1.212,0.387,1.817,0.63v-0.032c0.177,0.065,0.379,0.144,0.605,0.231
		c0.253,0.089,0.492,0.199,0.72,0.332c0.227,0.132,0.416,0.276,0.567,0.431s0.228,0.332,0.228,0.53c0,0.31-0.076,0.597-0.228,0.862
		c-0.126,0.266-0.303,0.497-0.529,0.696c-0.228,0.177-0.492,0.32-0.795,0.431c-0.278,0.111-0.568,0.166-0.871,0.166
		c-0.58,0-1.199-0.088-1.854-0.266c-0.656-0.198-1.351-0.42-2.082-0.663c-0.228-0.065-0.518-0.154-0.871-0.265
		c-0.328-0.11-0.669-0.221-1.022-0.332c-0.328-0.133-0.631-0.243-0.908-0.331c-0.277-0.11-0.492-0.188-0.644-0.232
		c-0.404-0.11-0.77-0.1-1.098,0.033c-0.303,0.133-0.454,0.332-0.454,0.597c-0.025,0.022-0.038,0.056-0.038,0.1v-0.066
		c-0.025,0.044-0.038,0.1-0.038,0.166c-0.051,0.11-0.101,0.232-0.151,0.364c-0.025,0.133-0.063,0.243-0.113,0.332l0.038-0.033
		c-0.051,0.11-0.102,0.232-0.152,0.364c-0.05,0.111-0.101,0.255-0.151,0.432c-0.151,0.397-0.29,0.796-0.416,1.193
		c-0.126,0.376-0.24,0.851-0.341,1.426c-0.051,0.133-0.013,0.276,0.113,0.431c0.127,0.155,0.291,0.255,0.492,0.299
		c0.556,0.265,1.25,0.53,2.082,0.796c0.833,0.243,1.691,0.475,2.574,0.696c0.909,0.221,1.792,0.397,2.65,0.53
		s1.603,0.199,2.233,0.199c1.716,0,3.306-0.288,4.77-0.862c1.464-0.575,2.7-1.47,3.71-2.686c0.556-0.686,0.997-1.415,1.325-2.188
		c0.328-0.796,0.492-1.603,0.492-2.42c0-1.216-0.303-2.232-0.909-3.051c-0.58-0.84-1.324-1.536-2.233-2.089
		c-0.908-0.553-1.918-1.006-3.028-1.359C270.594,86.686,269.547,86.354,268.537,86.067"/>
	<path d="M221.524,42.976c0,0.961-0.78,1.74-1.74,1.74c-0.961,0-1.74-0.779-1.74-1.74c0-0.96,0.779-1.74,1.74-1.74
		C220.744,41.236,221.524,42.015,221.524,42.976L221.524,42.976z"/>
	<path fill="none" stroke="#000000" stroke-width="0.6152" stroke-miterlimit="10" d="M221.524,42.976c0,0.961-0.78,1.74-1.74,1.74
		c-0.961,0-1.74-0.779-1.74-1.74c0-0.96,0.779-1.74,1.74-1.74C220.744,41.236,221.524,42.015,221.524,42.976L221.524,42.976z"/>
</g>
</svg>
